<?xml version="1.0" encoding="utf-8"?>
<!-- Generator: Adobe Illustrator 27.4.1, SVG Export Plug-In . SVG Version: 6.00 Build 0)  -->
<svg version="1.1" id="Calque_1" xmlns="http://www.w3.org/2000/svg" xmlns:xlink="http://www.w3.org/1999/xlink" x="0px" y="0px"
	 viewBox="0 0 2560 1080" style="enable-background:new 0 0 2560 1080;" xml:space="preserve">
<style type="text/css">
	.st0{filter:url(#Adobe_OpacityMaskFilter);}
	.st1{fill-rule:evenodd;clip-rule:evenodd;}
	.st2{mask:url(#SVGID_1_);fill-rule:evenodd;clip-rule:evenodd;}
</style>
<defs>
	<filter id="Adobe_OpacityMaskFilter" filterUnits="userSpaceOnUse" x="0" y="0" width="2560" height="1080">
		<feFlood  style="flood-color:white;flood-opacity:1" result="back"/>
		<feBlend  in="SourceGraphic" in2="back" mode="normal"/>
	</filter>
</defs>
<mask maskUnits="userSpaceOnUse" x="0" y="0" width="2560" height="1080" id="SVGID_1_">
	<g class="st0">
		<g>
			<path class="st1" d="M1220.83,435.67h46.28v92.56h-92.56v-46.28C1174.56,456.38,1195.28,435.67,1220.83,435.67z"/>
			<g>
				<path class="st1" d="M1385.44,481.94v46.28h-92.56v-92.56h46.28C1364.72,435.67,1385.44,456.38,1385.44,481.94z"/>
				<path class="st1" d="M1337.45,644.2h-46.28v-92.56h92.56v46.28C1383.73,623.48,1363.01,644.2,1337.45,644.2z"/>
				<path class="st1" d="M1174.56,598.06v-46.28h92.56v92.56h-46.28C1195.28,644.34,1174.56,623.62,1174.56,598.06z"/>
			</g>
		</g>
	</g>
</mask>
<rect class="st2" width="2560" height="1080"/>
</svg>
