<?xml version="1.0" encoding="utf-8"?>
<!-- Generator: Adobe Illustrator 27.4.1, SVG Export Plug-In . SVG Version: 6.00 Build 0)  -->
<svg version="1.1" id="Calque_1" xmlns="http://www.w3.org/2000/svg" xmlns:xlink="http://www.w3.org/1999/xlink" x="0px" y="0px"
	 viewBox="0 0 500 500" style="enable-background:new 0 0 500 500;" xml:space="preserve">
<style type="text/css">
	.st0{fill-rule:evenodd;clip-rule:evenodd;fill:#FFFFFF;}
</style>
<path class="st0" d="M110.69,0.89h110.69v221.38H0V111.58C0,50.44,49.56,0.89,110.69,0.89z"/>
<path class="st0" d="M110.69,0.89h110.69v221.38H0V111.58C0,50.44,49.56,0.89,110.69,0.89z"/>
<path class="st0" d="M500,111.58v110.69H278.62V0.89h110.69C450.44,0.89,500,50.44,500,111.58z"/>
<path class="st0" d="M389.31,500H278.62V278.62H500v110.69C500,450.44,450.44,500,389.31,500z"/>
<path class="st0" d="M0,389.31V278.62h221.38V500H110.69C49.56,500,0,450.44,0,389.31z"/>
</svg>
